<svg width="16" height="16" viewBox="0 0 24 24" fill="none" xmlns="http://www.w3.org/2000/svg">
<path fill-rule="evenodd" clip-rule="evenodd" d="M12 2.25C12.4142 2.25 12.75 2.58579 12.75 3V11.6893L15.9697 8.46967C16.2626 8.17678 16.7374 8.17678 17.0303 8.46967C17.3232 8.76256 17.3232 9.23744 17.0303 9.53033L12.5303 14.0303C12.2374 14.3232 11.7626 14.3232 11.4697 14.0303L6.96967 9.53033C6.67678 9.23744 6.67678 8.76256 6.96967 8.46967C7.26256 8.17678 7.73744 8.17678 8.03033 8.46967L11.25 11.6893V3C11.25 2.58579 11.5858 2.25 12 2.25Z" fill="currentColor"/>
<path d="M3.75 15.75C3.75 15.3358 3.41421 15 3 15C2.58579 15 2.25 15.3358 2.25 15.75V19.5C2.25 20.7426 3.25736 21.75 4.5 21.75H19.5C20.7426 21.75 21.75 20.7426 21.75 19.5V15.75C21.75 15.3358 21.4142 15 21 15C20.5858 15 20.25 15.3358 20.25 15.75V19.5H4.5V15.75H3.75Z" fill="currentColor"/>
</svg>
