<?xml version="1.0" standalone="no"?>
<!DOCTYPE svg PUBLIC "-//W3C//DTD SVG 20010904//EN"
 "http://www.w3.org/TR/2001/REC-SVG-20010904/DTD/svg10.dtd">
<svg version="1.0" xmlns="http://www.w3.org/2000/svg"
 width="32" height="32" viewBox="0 0 805.000000 805.000000"
 preserveAspectRatio="xMidYMid meet">

<g transform="translate(0.000000,805.000000) scale(0.100000,-0.100000)"
fill="currentColor" stroke="none">
<path d="M5392 7825 c-97 -21 -180 -81 -229 -165 -34 -58 -46 -111 -47 -200
l-1 -85 -75 -26 -75 -26 -102 107 c-158 165 -242 208 -394 197 -173 -12 -308
-119 -359 -285 -47 -151 -2 -312 119 -425 90 -84 88 -78 44 -139 -80 -108
-189 -314 -257 -482 -145 -359 -410 -635 -747 -775 -52 -22 -164 -58 -249 -81
-652 -175 -1071 -336 -1480 -568 -333 -188 -653 -453 -862 -713 -272 -340
-472 -786 -543 -1214 -50 -306 -46 -693 10 -1022 46 -264 161 -637 259 -839
88 -181 163 -292 276 -405 176 -178 378 -286 637 -341 l108 -23 1182 -3 c1055
-2 1186 -1 1213 13 59 30 62 44 58 252 -3 188 -3 188 -35 255 -60 126 -170
213 -302 238 -29 5 -193 10 -363 10 -170 0 -308 3 -306 8 2 4 27 49 57 100
l53 92 107 1 c58 1 219 4 356 8 l250 8 142 47 c113 37 260 94 419 162 8 4 16
-24 23 -78 42 -293 143 -938 151 -960 15 -47 58 -94 112 -124 l53 -29 672 -3
c733 -3 711 -4 749 53 22 34 30 213 15 325 -33 243 -203 390 -452 390 l-59 0
0 646 0 646 59 71 c180 221 361 536 475 826 139 353 253 842 281 1203 l7 86
302 5 c378 6 433 16 652 122 272 132 492 370 605 657 11 28 32 97 47 152 24
93 26 117 26 296 0 180 -2 203 -27 293 -70 258 -204 472 -397 634 -90 75 -321
214 -525 316 -324 162 -749 304 -1050 352 -55 9 -110 18 -121 20 -19 4 -22 14
-28 83 -16 177 -121 303 -282 337 -81 17 -72 17 -152 0z"/>
</g>
</svg>
